<svg xmlns="http://www.w3.org/2000/svg" xmlns:xlink="http://www.w3.org/1999/xlink" version="1.1" x="0px" y="0px" viewBox="0 0 68 85" style="enable-background:new 0 0 68 68;" xml:space="preserve"><g><path d="M65,45c0.6,0,1-0.4,1-1V11.4c0-1.6-1-3.1-2.5-3.7C34.3-3.6,10.9,4.8,4.4,7.7C2.9,8.3,2,9.7,2,11.3V65c0,0.6,0.4,1,1,1   c3.8,0,14.7,0,19.3,0c0.6,0,1-0.4,1-1s-0.4-1-1-1h-2V21.7c0.5-0.1,0.9-0.4,1.3-0.7l4.5,19.3c-1.5,0.7-2.5,2.2-2.5,4v2.1   c0,0.6,0.4,1,1,1h6.8c0.6,0,1-0.4,1-1v-2.1c0-2.4-1.9-4.3-4.3-4.4L22.9,18c-0.1-1.6-1.2-2.9-2.6-3.3V5.1c2.8-0.5,5.9-0.9,9.3-1v2.5   h-2.9c-0.3,0-0.6,0.1-0.8,0.4L23,10.8c-0.3,0.4-0.2,1.1,0.2,1.4c0.4,0.3,1.1,0.2,1.4-0.2l2.6-3.4h13.7l2.6,3.4   c0.3,0.4,1,0.5,1.4,0.2c0.4-0.3,0.5-1,0.2-1.4L42.1,7c-0.2-0.3-0.5-0.4-0.8-0.4h-2.9V4.2c3,0.2,6,0.6,9.3,1.2v9.4   c-1.5,0.4-2.6,1.7-2.7,3.3l-5.1,21.9c-2.4,0.1-4.3,2-4.3,4.4v2.1c0,0.6,0.4,1,1,1h6.8c0.6,0,1-0.4,1-1v-2.1c0-1.8-1-3.3-2.5-4   l4.5-19.3c0.4,0.3,0.8,0.5,1.3,0.7V64h-2c-0.6,0-1,0.4-1,1s0.4,1,1,1c3.8,0,14.7,0,19.3,0c0.6,0,1-0.4,1-1V49.6c0-0.6-0.4-1-1-1   s-1,0.4-1,1V64c-1.1,0-6.3,0-6.2,0c0-0.2,0-6.7,0-6.5H59c1.9,0,3.4-1.5,3.4-3.4c0-0.9-0.4-1.8-1-2.4c0.6-0.6,1-1.5,1-2.4   c0-0.9-0.4-1.8-1-2.4c0.6-0.6,1-1.5,1-2.4c0-1.9-1.5-3.4-3.4-3.4h-1.2V23.7c0-4.7-3.6-8.6-8.2-9.1V5.7c4.2,0.9,8.6,2.1,13.1,3.9   c0.7,0.3,1.2,1,1.2,1.8V44C64,44.6,64.4,45,65,45z M27.9,41.9c1.3,0,2.4,1.1,2.4,2.4v1.1h-4.8v-1.1C25.5,43,26.6,41.9,27.9,41.9z    M10.1,64c-0.3,0-6.5,0-6.1,0V11.3c0-0.8,0.5-1.5,1.2-1.8c2.3-1,6.9-2.8,13.1-4v9.1c-4.6,0.5-8.2,4.4-8.2,9.1v17.4H8.9   c-1.9,0-3.4,1.5-3.4,3.4c0,0.9,0.4,1.8,1,2.4c-0.6,0.6-1,1.5-1,2.4c0,0.9,0.4,1.8,1,2.4c-0.6,0.6-1,1.5-1,2.4   c0,1.9,1.5,3.4,3.4,3.4h1.2V64z M13.3,50.7H8.9c-0.8,0-1.4-0.6-1.4-1.4c0-0.8,0.6-1.4,1.4-1.4h4.4c0.8,0,1.4,0.6,1.4,1.4   C14.7,50.1,14.1,50.7,13.3,50.7z M14.7,54.1c0,0.8-0.6,1.4-1.4,1.4H8.9c-0.8,0-1.4-0.6-1.4-1.4s0.6-1.4,1.4-1.4h4.4   C14.1,52.7,14.7,53.3,14.7,54.1z M13.3,45.9H8.9c-0.8,0-1.4-0.6-1.4-1.4s0.6-1.4,1.4-1.4h4.4c0.8,0,1.4,0.6,1.4,1.4   S14.1,45.9,13.3,45.9z M18.3,64h-6.2v-6.5h1.2c1.9,0,3.4-1.5,3.4-3.4c0-0.9-0.4-1.8-1-2.4c0.6-0.6,1-1.5,1-2.4c0-0.9-0.4-1.8-1-2.4   c0.6-0.6,1-1.5,1-2.4c0-1.9-1.5-3.4-3.4-3.4h-1.2V23.7c0-2.6,1.4-4.9,3.5-6.2c0,0.2-0.1,0.5-0.1,0.7c0,1.7,1.1,3.1,2.7,3.5V64z    M21,18.2c0,0.9-0.8,1.7-1.7,1.7s-1.7-0.8-1.7-1.7s0.8-1.7,1.7-1.7S21,17.3,21,18.2z M36.4,6.6h-4.9V4c1.6,0,3.2,0,4.9,0V6.6z    M42.4,44.3v1.1h-4.8v-1.1c0-1.3,1.1-2.4,2.4-2.4C41.4,41.9,42.4,43,42.4,44.3z M59,55.5h-4.4c-0.8,0-1.4-0.6-1.4-1.4   s0.6-1.4,1.4-1.4H59c0.8,0,1.4,0.6,1.4,1.4S59.8,55.5,59,55.5z M59,50.7h-4.4c-0.8,0-1.4-0.6-1.4-1.4c0-0.8,0.6-1.4,1.4-1.4H59   c0.8,0,1.4,0.6,1.4,1.4C60.4,50.1,59.8,50.7,59,50.7z M59,43.2c0.8,0,1.4,0.6,1.4,1.4s-0.6,1.4-1.4,1.4h-4.4   c-0.8,0-1.4-0.6-1.4-1.4s0.6-1.4,1.4-1.4H59z M52.3,17.5c2.1,1.2,3.5,3.5,3.5,6.2v17.4h-1.2c-1.9,0-3.4,1.5-3.4,3.4   c0,0.9,0.4,1.8,1,2.4c-0.6,0.6-1,1.5-1,2.4c0,0.9,0.4,1.8,1,2.4c-0.6,0.6-1,1.5-1,2.4c0,1.9,1.5,3.4,3.4,3.4h1.2c0,0.1,0,6.6,0,6.5   h-6.2V21.8c1.5-0.4,2.7-1.8,2.7-3.5C52.4,18,52.3,17.8,52.3,17.5z M50.4,18.2c0,0.9-0.8,1.7-1.7,1.7S47,19.2,47,18.2   s0.8-1.7,1.7-1.7S50.4,17.3,50.4,18.2z"/></g><text x="0" y="83" fill="#000000" font-size="5px" font-weight="bold" font-family="'Helvetica Neue', Helvetica, Arial-Unicode, Arial, Sans-serif">Created by Smashing Stocks</text><text x="0" y="88" fill="#000000" font-size="5px" font-weight="bold" font-family="'Helvetica Neue', Helvetica, Arial-Unicode, Arial, Sans-serif">from the Noun Project</text></svg>