<svg xmlns="http://www.w3.org/2000/svg" xmlns:xlink="http://www.w3.org/1999/xlink" version="1.1" x="0px" y="0px" viewBox="0 0 503.998 249.80125" style="enable-background:new 0 0 503.998 199.841;" xml:space="preserve"><path d="M503.939,104.552c-3.011-38.886-16.281-73.614-37.369-97.789C462.821,2.465,457.41,0,451.727,0H52.27  c-5.683,0-11.093,2.465-14.843,6.764C16.34,30.938,3.07,65.667,0.059,104.552c-0.425,5.493,1.469,10.955,5.198,14.983  c1.466,1.584,3.144,2.879,4.968,3.882c-2.621,2.943-4.229,6.807-4.229,11.049c0,7.798,5.397,14.341,12.646,16.139v16.45  c-7.249,1.798-12.646,8.342-12.646,16.139c0,9.179,7.467,16.646,16.646,16.646h146.862c9.179,0,16.646-7.468,16.646-16.646  c0-7.798-5.397-14.341-12.646-16.139v-16.45c7.249-1.798,12.646-8.342,12.646-16.139c0-3.169-0.906-6.122-2.449-8.646h136.599  c-1.543,2.524-2.449,5.478-2.449,8.646c0,7.798,5.397,14.341,12.646,16.139v16.45c-7.249,1.798-12.646,8.342-12.646,16.139  c0,9.179,7.467,16.646,16.646,16.646h146.862c9.178,0,16.646-7.468,16.646-16.646c0-7.798-5.397-14.341-12.646-16.139v-16.45  c7.249-1.798,12.646-8.342,12.646-16.139c0-4.242-1.608-8.106-4.229-11.049c1.824-1.003,3.502-2.298,4.968-3.882  C502.47,115.507,504.364,110.045,503.939,104.552z M435.894,8l15.434,57.603c1.033,3.854,0.232,7.878-2.196,11.043  c-2.429,3.165-6.109,4.98-10.099,4.98H64.964c-3.989,0-7.67-1.815-10.099-4.98c-2.428-3.165-3.229-7.19-2.196-11.043L68.104,8  H435.894z M178.148,183.195c0,4.768-3.878,8.646-8.646,8.646H22.64c-4.767,0-8.646-3.879-8.646-8.646s3.878-8.646,8.646-8.646  h146.862C174.27,174.549,178.148,178.427,178.148,183.195z M26.64,166.549v-15.438h138.862v15.438H26.64z M169.502,143.112H22.64  c-4.767,0-8.646-3.878-8.646-8.646s3.878-8.646,8.646-8.646h146.862c4.768,0,8.646,3.879,8.646,8.646  S174.27,143.112,169.502,143.112z M490.003,183.195c0,4.768-3.878,8.646-8.646,8.646H334.495c-4.768,0-8.646-3.879-8.646-8.646  s3.878-8.646,8.646-8.646h146.862C486.124,174.549,490.003,178.427,490.003,183.195z M338.495,166.549v-15.438h138.862v15.438  H338.495z M481.357,143.112H334.495c-4.768,0-8.646-3.878-8.646-8.646s3.878-8.646,8.646-8.646h146.862  c4.767,0,8.646,3.879,8.646,8.646S486.124,143.112,481.357,143.112z M492.87,114.101c-2.22,2.398-5.242,3.719-8.509,3.719H19.637  c-3.268,0-6.29-1.32-8.509-3.719c-2.252-2.433-3.35-5.604-3.092-8.932c2.878-37.181,15.458-70.261,35.42-93.147  C45.686,9.466,48.899,8,52.27,8h7.551l-14.88,55.533c-1.682,6.275-0.377,12.83,3.577,17.984c3.955,5.154,9.949,8.11,16.445,8.11  h374.069c6.497,0,12.491-2.956,16.445-8.11c3.955-5.154,5.259-11.709,3.577-17.984L444.176,8h7.551c3.372,0,6.584,1.466,8.814,4.022  c19.963,22.886,32.542,55.966,35.42,93.147C496.22,108.497,495.122,111.668,492.87,114.101z"/><text x="0" y="214.841" fill="#000000" font-size="5px" font-weight="bold" font-family="'Helvetica Neue', Helvetica, Arial-Unicode, Arial, Sans-serif">Created by Amethyst Studio</text><text x="0" y="219.841" fill="#000000" font-size="5px" font-weight="bold" font-family="'Helvetica Neue', Helvetica, Arial-Unicode, Arial, Sans-serif">from the Noun Project</text></svg>