<svg xmlns="http://www.w3.org/2000/svg" version="1.1" viewBox="-5.0 -10.0 110.0 135.0">
 <g fill-rule="evenodd">
  <path d="m11.266 31.969v-5.4766h-1.2031c-0.37891 0-0.73438 0.074218-1.0508 0.20312-0.66406 0.27344-1.207 0.82031-1.4844 1.4844-0.13281 0.31641-0.20312 0.67187-0.20312 1.0508 0 0.75781 0.30469 1.4414 0.80078 1.9375 0.49609 0.49609 1.1797 0.80078 1.9375 0.80078z"/>
  <path d="m25.84 40.617v-22.773c0-0.68359-0.27734-1.3008-0.72266-1.75-0.44922-0.44922-1.0664-0.72266-1.75-0.72266-0.68359 0-1.3008 0.27734-1.75 0.72266-0.44922 0.44922-0.72266 1.0664-0.72266 1.75v5.9688 0.023438 16.781c0 0.68359 0.27734 1.3008 0.72266 1.75 0.44922 0.44922 1.0664 0.72266 1.75 0.72266 0.68359 0 1.3008-0.27734 1.75-0.72266 0.44531-0.44531 0.72266-1.0664 0.72266-1.75z"/>
  <path d="m79.211 40.617v-22.773c0-0.68359-0.27734-1.3008-0.72266-1.75-0.44922-0.44922-1.0664-0.72266-1.75-0.72266-0.68359 0-1.3008 0.27734-1.75 0.72266-0.44922 0.44922-0.72266 1.0664-0.72266 1.75v5.9688 0.023438 16.781c0 0.68359 0.27734 1.3008 0.72266 1.75 0.44922 0.44922 1.0664 0.72266 1.75 0.72266 0.68359 0 1.3008-0.27734 1.75-0.72266 0.44531-0.44531 0.72266-1.0664 0.72266-1.75z"/>
  <path d="m18.551 34.625v-10.805c-0.003906-0.67578-0.28125-1.2891-0.72266-1.7305-0.44922-0.44922-1.0664-0.72266-1.75-0.72266s-1.3008 0.27734-1.75 0.72266c-0.44922 0.44922-0.72266 1.0664-0.72266 1.75v10.785c0 0.68359 0.27734 1.3008 0.72266 1.75 0.44922 0.44922 1.0664 0.72266 1.75 0.72266s1.3008-0.27734 1.75-0.72266c0.41797-0.41797 0.6875-0.97656 0.72266-1.5977z"/>
  <path d="m33.129 35.43v-21.305c0-0.68359-0.27734-1.3008-0.72266-1.75-0.44922-0.44922-1.0664-0.72266-1.75-0.72266s-1.3008 0.27734-1.75 0.72266c-0.44922 0.44922-0.72266 1.0664-0.72266 1.75v30.215c0 0.68359 0.27734 1.3008 0.72266 1.75 0.44922 0.44922 1.0664 0.72266 1.75 0.72266s1.3008-0.27734 1.75-0.72266c0.44922-0.44922 0.72266-1.0664 0.72266-1.75z"/>
  <path d="m38.727 33.121v-7.7852-0.015626-0.015624-1.1055h-3.2578v10.059h3.2539v-1.1055-0.015625c0.003906-0.003907 0.003906-0.007813 0.003906-0.015625z"/>
  <path d="m41.066 26.492h17.973v5.4766h-17.973z"/>
  <path d="m64.637 34.262v-10.062h-3.2578v10.062z"/>
  <path d="m71.926 40.617v-26.492c0-0.68359-0.27734-1.3008-0.72266-1.75-0.44922-0.44922-1.0664-0.72266-1.75-0.72266s-1.3008 0.27734-1.75 0.72266c-0.44922 0.44922-0.72266 1.0664-0.72266 1.75v30.215c0 0.68359 0.27734 1.3008 0.72266 1.75 0.44922 0.44922 1.0664 0.72266 1.75 0.72266s1.3008-0.27734 1.75-0.72266c0.44922-0.44922 0.72266-1.0664 0.72266-1.75z"/>
  <path d="m86.5 34.625v-10.789c0-0.68359-0.27734-1.3008-0.72266-1.75-0.44922-0.44922-1.0664-0.72266-1.75-0.72266s-1.3008 0.27734-1.75 0.72266c-0.44531 0.44531-0.71875 1.0547-0.72266 1.7305v10.957c0.039062 0.62109 0.30859 1.1797 0.72266 1.5977 0.44922 0.44922 1.0664 0.72266 1.75 0.72266s1.3008-0.27734 1.75-0.72266c0.44531-0.44531 0.72266-1.0625 0.72266-1.7461z"/>
  <path d="m92.578 30.281c0.13281-0.31641 0.20312-0.67188 0.20312-1.0508 0-0.75781-0.30469-1.4414-0.80078-1.9375-0.49609-0.49609-1.1797-0.80078-1.9375-0.80078h-1.2031v5.4805h1.2031v-0.003906c0.37891 0 0.73438-0.074219 1.0508-0.20312 0.66797-0.27344 1.2109-0.82031 1.4844-1.4844z"/>
  <path d="m11.266 73.809v-5.4766h-1.2031c-0.37891 0-0.73438 0.074219-1.0508 0.20312-0.66406 0.27344-1.207 0.82031-1.4844 1.4844-0.13281 0.31641-0.20312 0.67188-0.20312 1.0508 0 0.75781 0.30469 1.4414 0.80078 1.9375 0.49609 0.49609 1.1797 0.80078 1.9375 0.80078z"/>
  <path d="m25.84 82.457v-22.777c0-0.68359-0.27734-1.3008-0.72266-1.75-0.44922-0.44922-1.0664-0.72266-1.75-0.72266-0.68359 0-1.3008 0.27734-1.75 0.72266-0.44922 0.44922-0.72266 1.0664-0.72266 1.75v5.9688 0.023437 16.781c0 0.68359 0.27734 1.3008 0.72266 1.75 0.44922 0.44922 1.0664 0.72266 1.75 0.72266 0.68359 0 1.3008-0.27734 1.75-0.72266 0.44531-0.44141 0.72266-1.0625 0.72266-1.7461z"/>
  <path d="m79.211 82.457v-22.777c0-0.68359-0.27734-1.3008-0.72266-1.75-0.44922-0.44922-1.0664-0.72266-1.75-0.72266-0.68359 0-1.3008 0.27734-1.75 0.72266-0.44922 0.44922-0.72266 1.0664-0.72266 1.75v5.9688 0.023437 16.781c0 0.68359 0.27734 1.3008 0.72266 1.75 0.44922 0.44922 1.0664 0.72266 1.75 0.72266 0.68359 0 1.3008-0.27734 1.75-0.72266 0.44531-0.44141 0.72266-1.0625 0.72266-1.7461z"/>
  <path d="m18.551 76.465v-10.805c-0.003906-0.67578-0.28125-1.2891-0.72266-1.7305-0.44922-0.44922-1.0664-0.72266-1.75-0.72266s-1.3008 0.27734-1.75 0.72266c-0.44922 0.44922-0.72266 1.0664-0.72266 1.75v10.785c0 0.68359 0.27734 1.3008 0.72266 1.75 0.44922 0.44922 1.0664 0.72266 1.75 0.72266s1.3008-0.27734 1.75-0.72266c0.41797-0.41797 0.6875-0.97656 0.72266-1.5977z"/>
  <path d="m33.129 77.27v-21.309c0-0.68359-0.27734-1.3008-0.72266-1.75-0.44922-0.44922-1.0664-0.72266-1.75-0.72266s-1.3008 0.27734-1.75 0.72266c-0.44922 0.44922-0.72266 1.0664-0.72266 1.75v30.215c0 0.68359 0.27734 1.3008 0.72266 1.75 0.44922 0.44922 1.0664 0.72266 1.75 0.72266s1.3008-0.27734 1.75-0.72266c0.44922-0.44922 0.72266-1.0664 0.72266-1.75z"/>
  <path d="m38.727 74.961v-7.7852-0.015625-0.015625-1.1055h-3.2578v10.059h3.2539v-1.1055-0.015626c0.003906-0.003906 0.003906-0.007812 0.003906-0.015624z"/>
  <path d="m41.066 68.332h17.973v5.4766h-17.973z"/>
  <path d="m64.637 76.102v-10.062h-3.2578v10.062z"/>
  <path d="m71.926 82.457v-26.496c0-0.68359-0.27734-1.3008-0.72266-1.75-0.44922-0.44922-1.0664-0.72266-1.75-0.72266s-1.3008 0.27734-1.75 0.72266c-0.44922 0.44922-0.72266 1.0664-0.72266 1.75v30.215c0 0.68359 0.27734 1.3008 0.72266 1.75 0.44922 0.44922 1.0664 0.72266 1.75 0.72266s1.3008-0.27734 1.75-0.72266c0.44922-0.44922 0.72266-1.0664 0.72266-1.75z"/>
  <path d="m86.5 76.465v-10.789c0-0.68359-0.27734-1.3008-0.72266-1.75-0.44922-0.44922-1.0664-0.72266-1.75-0.72266s-1.3008 0.27734-1.75 0.72266c-0.44531 0.44531-0.71875 1.0547-0.72266 1.7305v10.957c0.039062 0.62109 0.30859 1.1797 0.72266 1.5977 0.44922 0.44922 1.0664 0.72266 1.75 0.72266s1.3008-0.27734 1.75-0.72266c0.44531-0.44531 0.72266-1.0625 0.72266-1.7461z"/>
  <path d="m92.578 72.121c0.13281-0.31641 0.20312-0.67188 0.20312-1.0508 0-0.75781-0.30469-1.4414-0.80078-1.9375-0.49609-0.49609-1.1797-0.80078-1.9375-0.80078h-1.2031v5.4805h1.2031v-0.003906c0.37891 0 0.73438-0.074219 1.0508-0.20312 0.66797-0.27734 1.2109-0.82031 1.4844-1.4844z"/>
 </g>
<text x="0.0" y="117.5" font-size="5.0" font-weight="bold" font-family="Arbeit Regular, Helvetica, Arial-Unicode, Arial, Sans-serif" fill="#000000">Created by Graphixs_Art</text><text x="0.0" y="122.5" font-size="5.0" font-weight="bold" font-family="Arbeit Regular, Helvetica, Arial-Unicode, Arial, Sans-serif" fill="#000000">from Noun Project</text></svg>