<svg xmlns="http://www.w3.org/2000/svg" viewBox="0 0 60 75" x="0px" y="0px"><path d="M19,43.014a2.278,2.278,0,0,1,1.256-.632l4.8-.682a1.46,1.46,0,0,0,.8-.407,1.482,1.482,0,0,0,.4-.738L28.34,30.1A2.25,2.25,0,0,1,30.1,28.351L40.563,26.26A1.459,1.459,0,0,0,41.67,25.2l1.471-5.858a2.224,2.224,0,0,1,.592-1.054l4.283-4.274-2.024-2.024L41,17a1.391,1.391,0,0,0-.377.665L39.47,22.253a2.257,2.257,0,0,1-1.752,1.659L27.146,26.03a1.464,1.464,0,0,0-1.127,1.134L23.971,37.455a2.263,2.263,0,0,1-1.9,1.786l-3.423.489a1.392,1.392,0,0,0-.8.407l-5.862,5.855,2.024,2.024Z"/><path d="M47.484,6.021a1,1,0,0,0-1.412,0l-.9.9a1,1,0,0,0,0,1.412l6.495,6.495a1,1,0,0,0,1.412,0l.9-.9a1,1,0,0,0,0-1.412Z"/><path d="M54.941,2.292a1,1,0,0,0-1.412,0L50.057,5.765l4.178,4.178,3.473-3.472a1,1,0,0,0,0-1.412Z"/><path d="M6.021,47.484l6.5,6.495a1,1,0,0,0,1.412,0l.9-.9a1,1,0,0,0,0-1.412L8.335,45.17a1,1,0,0,0-1.412,0l-.9.9A1,1,0,0,0,6.021,47.484Z"/><path d="M2.292,53.529a1,1,0,0,0,0,1.412l2.767,2.767a1,1,0,0,0,1.412,0l3.472-3.473L5.765,50.057Z"/><text x="0" y="75" fill="#000000" font-size="5px" font-weight="bold" font-family="'Helvetica Neue', Helvetica, Arial-Unicode, Arial, Sans-serif">Created by Juicy Fish</text><text x="0" y="80" fill="#000000" font-size="5px" font-weight="bold" font-family="'Helvetica Neue', Helvetica, Arial-Unicode, Arial, Sans-serif">from the Noun Project</text></svg>