<svg xmlns="http://www.w3.org/2000/svg" xmlns:xlink="http://www.w3.org/1999/xlink" xml:space="preserve" version="1.1" style="shape-rendering:geometricPrecision;text-rendering:geometricPrecision;image-rendering:optimizeQuality;" viewBox="0 0 50000 62500" x="0px" y="0px" fill-rule="evenodd" clip-rule="evenodd"><defs><style type="text/css">
   
    .fil0 {fill:black;fill-rule:nonzero}
   
  </style></defs><g><path class="fil0" d="M14589.68 30444.07l-1668.54 -166.83c-1192.99,-119.16 -1509.87,1661.42 -1880.31,3743.09 -97.84,549.81 -179.74,1029.15 -304.18,1599.97 -56,256.91 -105.52,293.29 159.12,346.26l1634.54 327.21c226.59,45.35 227.5,90.42 270.01,-127.6l598.97 -3071.48c166.46,-853.65 484.32,-1579.62 1010.37,-2106.16 95.2,-95.28 196.9,-183.8 305.38,-265.13 393.04,-294.62 489.82,-217.82 -125.36,-279.33zm14836.63 -2494.16l-1069.14 -114.86c-330.79,-52.69 -366.67,167.95 -799.94,198.58l-240.69 20.84c-333.12,28.86 -305.12,0.48 -26.75,176.94l4317.81 2736.89c396.55,251.35 415.8,342.71 222.84,-113.03l-1240.84 -2930.76c-136.11,-321.49 -55.68,-230.33 -345.01,-97.41 -266.03,122.21 -546.86,157.96 -818.28,122.81zm-12017.33 19335.94l-1249.65 -381.69c-128.31,-36.63 -269.33,-123.11 -367.54,-212.9 -225.52,-206.2 -83.2,-190.22 -415.62,-283.42l-10537.55 -2954.4c-368.83,-103.4 -671.61,-196.41 -1079.58,-223.52 -230.89,-15.34 -455.16,-30.26 -821.46,-143.45 -1720,-531.53 -966.3,-3734.64 790.56,-3489.25 831.7,116.17 1075.5,318.49 1299.57,504.43 177.27,153.47 463.45,236.66 587.24,267.35l3036.73 765.06c324.68,87.81 317.77,70.21 375.07,-190.27l86.27 -344.56c57.26,-228.64 96.95,-183.4 -87.48,-285.12 -59.91,-33.05 -117.14,-68.11 -171.72,-105.04 -273.18,-184.76 -371.27,9.16 -761.26,10.01 -330.31,0.72 -681.41,-73.01 -957.62,-151.36l-3288.25 -932.73c-2315.78,-656.89 -1465.82,-4906.71 1026.7,-4420.56l3350.74 653.58c347.86,67.85 655.71,159.31 889.12,257.27 318.42,157.52 345.11,236.48 663.18,216.24 83.73,-9.33 167.9,-12.44 253.33,-10.28 163.67,4.14 162.31,-58.43 197.82,-217.6 70.56,-316.23 111.48,-533.68 171.64,-854.47 -1321.84,-414.4 -832.69,-3118 616.39,-3052.03 148.57,-518.92 328.71,-963.59 569.28,-1295.36 213.85,-294.91 317.34,-236.42 -114.45,-279.59l-4556.72 -455.61c-2713.21,-271.31 -3109.28,-4298.87 453.56,-4412.36l12940.24 -462.67c288.84,-9.73 196.47,24.49 328.83,-219.57 510.31,-941.1 1295.98,-763.8 1804.88,-1379.49l13544.85 -18432.78c594.83,-809.52 999.7,-1291.27 2072.8,-1441.04l4999.29 -697.68c607.67,-84.81 1149.86,-124.5 1749.67,89.1 771.65,274.8 1276.14,900.44 1193.1,1743.21 -37.49,380.4 -195.92,800.85 -501.59,1246.36l-12922.87 18834.6c-369.26,538.18 -321.59,375.09 -63.39,988.14l3301.47 7838.83c175.86,417.58 123.62,342.05 507.09,585.12l3500.66 2218.92c295.05,187 426.77,240.06 772.6,289.59l4674.03 669.4c260.59,37.32 123.66,16.28 367.18,-40.75 156.13,-36.54 217.88,-21.1 368.95,-4.93 369.97,39.64 738.69,89.07 1108.45,130.19 253.96,28.25 448.84,135.23 592.59,295.17 564.28,627.78 362.11,2185.69 -325.05,2664.52 -92.56,64.5 -193.3,108.16 -301.15,125.94 -129.51,21.36 -243.17,-3.29 -369.43,-21.64l-1307.34 -190.01c-109.61,-15.93 -207.44,-52.83 -293.84,-107.18 -249.85,-157.12 -108.17,-145.25 -449.27,-200.83l-10249.38 -1670.17c-251.95,-41.05 -340.19,-85.41 -416.04,68.63 -66.22,134.47 -228.34,156.9 -520.43,113.06l-1018.99 -152.97c-1373.78,-206.24 -1107.28,-2758.98 116.49,-2971.06 344.15,-59.62 573.34,125.99 52.79,-194.36l-7199.15 -4430.36c-864.74,-532.16 -1107.11,-615.28 -2127.71,-527.6 -2262.78,196.01 -4603.36,332.95 -6850.02,608.34 -639.47,78.41 -1137.07,164.02 -1684.41,711.84 -450.21,450.62 -725.58,1089.02 -873.65,1848.36l-597.39 3063.36c-40.96,210.01 -21.92,190.4 179.58,229.64 418.44,81.49 790.18,147.14 1201.63,242.95 2770.33,645.11 1733.61,5486.75 -912.32,4897.46 -334.38,-74.49 -678.6,-171.67 -1016.4,-262.93 -285.15,-77.04 -246.16,-122.63 -311.09,168.85 -32.18,144.52 -53.19,303.82 1.86,394.02 139.52,228.64 610.98,241.66 893.14,314.08l3133.88 804.32c329.69,84.61 230.37,46.67 534.37,11.72 182.17,-20.92 372.44,0.31 588.84,64.71l1312.28 326.2c2115.47,525.83 1220.26,4273.9 -958.36,3977.68 -196.56,-26.71 -343.31,-77.46 -530.57,-134.66zm-302.22 -895.01c-56.91,-261.97 -62.03,-552.01 -25.32,-842.52 80.65,-638.48 300.29,-1095.07 747.96,-1582.06 223.56,-243.14 322.83,-194.8 13.37,-271.73l-399.36 -99.27c-367.12,-109.34 -652.57,-26.65 -919.56,233.74 -420.73,410.35 -653.24,1172.57 -650.92,1715.62 1.39,326.13 83.79,766.45 437.77,884.93l592.28 181.04c408.97,136.67 269.81,84.18 203.78,-219.75zm1709.25 -2400.65c-187.84,7.74 -367.86,87.32 -528.35,213.74 -419.96,330.81 -646.12,884.8 -712.08,1406.89 -39.55,313.01 -20.7,617.72 72.67,859.89 82.17,213.12 225.69,376.2 443.08,443.32 1443.86,445.42 2145.83,-2982.33 724.68,-2923.84zm-2944.07 -587.55l-2618.18 -671.95c-495.72,-127.23 -1119.54,-193.26 -1310.58,-612.63 -89.66,-196.82 -54.99,-439.5 -3.23,-668.8 68.45,-303.28 138.23,-264.71 -147.8,-338.88l-1915.21 -496.63c-258.78,-67.09 -223.97,-115.37 -284.83,127.73l-161.08 643.37c-101.34,404.71 -155.97,421.23 -524.59,328.3l-3388.86 -854.35c-210.68,-37.18 -348.77,-62.3 -558.68,35.46 -537.75,250.48 -740.83,1140.01 -547.28,1663.7 57.21,154.75 149.21,275.03 277.65,331.55 113.86,34.52 226.36,67.28 341.01,99.42l10078.49 2825.69c396.93,111.29 267.76,118.37 266.12,-268.04 -2.61,-614.19 216.57,-1335.76 603.59,-1845.82 206.35,-271.95 275.27,-200.12 -106.54,-298.12zm-5208.51 -11107.76c-520.41,314.27 -718.05,1381.03 -346.22,1824.28 159.57,190.2 170.67,156.25 203.51,-27.93 100.09,-561.94 197.01,-1126.16 319.98,-1683.54 43.78,-198.51 71.75,-263.16 -177.27,-112.81zm-743.32 7815.23l2250.13 583.47c413.88,107.32 314.28,74.74 181.3,-230.31 -475.86,-1091.59 -141.38,-2611.73 777.42,-3346.22 245.53,-196.28 281.87,-137.2 -92.75,-212.2l-2468.98 -494.27c-245.27,-49.09 -482.42,-101.24 -736.12,-72.96 -537.3,59.89 -948.23,504.25 -1166.74,971.28 -311.62,666.03 -328.53,1523.73 65.31,2089.56 305.24,438.57 710.46,587.2 1190.43,711.65zm4024.82 1040.46c1932.82,329.26 2715.8,-3413.56 642.18,-3933.49 -1935.04,-485.17 -2905.63,3548.72 -642.18,3933.49zm-5742.93 -1657.37c-378.43,-695.61 -343.39,-1623.27 1.18,-2372.78 157.72,-343.06 380.31,-648.81 657.76,-877.9 173.05,-142.88 227.45,-96.7 -49.55,-198.97 -132.31,-48.88 -279.63,-100.66 -421.25,-118.76 -1587.82,-203.5 -2258.96,3177.92 -823.49,3715.94 135.61,50.84 317.48,95.73 489.3,81.41 288.26,-24.03 272,2.63 146.05,-228.94zm-1818.38 -560.55c-309.69,-1091.53 82.44,-2594.88 968.59,-3225.81l-2574.52 -502.17c-1892.49,-369.11 -2475.34,2999.59 -800.29,3474.73l2171.55 615.98c569.23,161.44 384,163.56 234.67,-362.73zm-1910.64 1385.52c-157.56,-86.82 -391.54,-167.91 -813.2,-226.81 -1152.53,-160.97 -1708.1,2168.62 -575.72,2518.55 309.31,95.58 504.9,108.6 706.24,121.97 208.9,13.9 154.31,35.56 105.82,-157.99 -168.95,-673.97 58.41,-1564.1 620.78,-1997.75 169.5,-130.72 237.94,-102.68 -43.92,-257.97zm10020.14 -10384.94c560.83,56.07 411.78,98.46 182.54,-278.74 -201.85,-332.14 -312.28,-717.79 -329,-1107.76 -81.39,-1898.69 1651.17,-2423.66 3222.16,-2537.07l6046.98 -436.5c1072.36,-77.4 1053.24,-55.02 -5.47,-119.41l-2560.2 -155.71c-215.64,-13.11 -359.05,-10.84 -571.76,-3.67l-13095.47 467.89c-2917.66,92.91 -2514.49,3210.86 -432.35,3419.04 2582.66,258.22 4981.75,495.9 7542.57,751.93zm3027.89 -696.48c297.4,-875.9 718.45,-908.1 1581.01,-974.05 2805.59,-214.65 5609.35,-484.23 8413.23,-727.02 188.42,-16.23 318.22,-161.58 389.17,-359.4 129.53,-361.1 69.94,-872.01 -144.81,-1192.9 -166.16,-248.36 -215.25,-193.22 -486.59,-173.64l-9669.04 697.96c-1269.7,91.65 -2827.01,439.39 -2759.28,2019.49 18.48,431.44 194.35,870.96 504.58,1174.77 349.87,342.63 656.82,404.69 1038.7,404.84 661.54,0.24 922.59,-250.26 1133.03,-870.05zm8374.13 -1059.03c-2249.8,196.66 -4506.07,410.97 -6756.02,583.02 -641.21,49.02 -954.22,72.96 -1145.45,636.17 -39.02,114.91 -81.5,219.2 -126.98,313.83 -170.74,355.31 -7.79,278.57 477.79,236.52l4911.15 -425.31c1084.28,-93.26 1457.59,0.5 2380.55,568.48l10641.63 6548.86c279.68,171.92 17.95,597.69 -261.72,425.78l-842.98 -518.77c-328.27,-202.01 -684.29,-384.17 -1055.69,-491.26 -159.65,-46.06 -248.72,-54.68 -384.21,156.38 -164.36,256.04 -232.48,617.49 -194.6,916.09 48.86,385.2 95.66,355.33 423.4,408.74l10468.36 1705.84c315.5,51.41 229.83,74.62 202.53,-190.86 -40.34,-391.94 22.52,-837.44 186.25,-1205.39 134.35,-301.94 224.52,-239.63 -150.51,-293.34l-4229.51 -605.74c-365.5,-52.34 -477.34,-91.58 -784.93,-286.56 -4402.79,-2790.74 -8709.4,-5520.55 -13107.92,-8308.58 -338.8,-214.76 -253.31,-208.66 -651.14,-173.9zm9169.29 4695.56l-2949.38 -7002.83c-206.13,-441.06 -294.56,-249.94 -654.96,300.89 -184.16,268.4 -302.42,577.65 -450.65,867.24 -176.57,345.04 -161.64,218.34 -1.06,597.62l1569.71 3707.49c134.75,318.24 176.43,351.59 466.49,535.45l1816.44 1151.37c430.54,272.88 403.18,317.11 203.41,-157.23zm-1906.56 2841.19l-334.25 -50.08c-834.58,-125.03 -1124.94,1860.05 -294.21,1984.76l499.23 74.94c267.15,40.11 174.47,3.74 89.72,-213.06 -179.48,-459.11 -73.66,-1129.19 176.01,-1538.49 161.15,-264.22 246.69,-200.66 -136.5,-258.07zm13783.58 2150.32c-260.59,334.11 -480.88,1590.27 -145.46,1885.48 71.67,63.07 177.07,81.41 263.92,40.03 470.93,-224.17 618.5,-1493.23 296.89,-1904.73 -138.49,-177.16 -271.01,-205.89 -415.35,-20.78zm-778.94 1573.24c-82.59,-487.91 -7.28,-1100.43 194.24,-1551.45 128.17,-286.9 211.83,-230.17 -149.35,-272.9 -267.27,-31.6 -450.33,-98.62 -675.4,75.01 -351.52,271.18 -459.8,974.61 -391.9,1399.12 29.2,182.45 115.38,479.14 333.36,510.8l507.07 73.7c333.62,48.48 233.65,71.08 181.98,-234.28zm-24750.65 -14617.82l5781.35 351.62c114.49,6.97 203.82,9.26 318.11,38.83 234.92,60.79 427.35,196.46 576.72,377.3 198.49,240.28 84.4,251.32 278.02,-22.46 246.38,-348.36 523.54,-512.96 827.97,-693.72 475.85,-282.53 772.38,-521.3 1083.54,-982.31l13431.36 -19899.34c741.24,-1098.12 380.98,-999.46 -710.79,-847.08l-4849.44 676.77c-921.89,128.66 -1218.55,507.52 -1730.87,1204.79l-13576.15 18475.37c-472.86,591.53 -1198.62,589.41 -1642.55,1143.41 -156.26,195.01 -1.67,163.78 212.73,176.82zm23136.96 -21355.19c-79.04,317.68 -248.81,542.16 -433.34,815.54l-13394.43 19844.63c-370.46,548.82 -697.03,834.22 -1273.12,1176.27 -256.18,152.12 -489.42,290.63 -673.67,551.14 -261.38,369.57 -273.5,722.63 -142.56,999.93 134.9,285.67 413.03,493 715.01,573.61 1091.06,229.21 1267.34,-903.6 1701.28,-1536.06l14039.26 -20461.68c256.37,-373.65 388.11,-714.72 417.59,-1013.92 53.46,-542.52 -236.6,-944.76 -717.17,-1164.63 -246.19,-112.63 -184.37,-3.84 -238.85,215.17z"/></g><text x="0" y="50015" fill="#000000" font-size="5px" font-weight="bold" font-family="'Helvetica Neue', Helvetica, Arial-Unicode, Arial, Sans-serif">Created by Oleksandr Panasovskyi</text><text x="0" y="50020" fill="#000000" font-size="5px" font-weight="bold" font-family="'Helvetica Neue', Helvetica, Arial-Unicode, Arial, Sans-serif">from the Noun Project</text></svg>