<svg xmlns="http://www.w3.org/2000/svg" xmlns:xlink="http://www.w3.org/1999/xlink" version="1.1" x="0px" y="0px" viewBox="0 0 100 125" style="enable-background:new 0 0 100 100;" xml:space="preserve"><g><ellipse cx="49.921" cy="19.412" rx="4.643" ry="5.461"/><path d="M78.886,92.068h-2.452V9.099c0-0.69-0.56-1.25-1.25-1.25h-5.565c-0.28-0.603-0.869-1.016-1.917-0.948   C67.253,6.93,66.79,7.241,66.23,7.849H33.77c-0.56-0.607-1.022-0.919-1.472-0.948c-1.048-0.068-1.637,0.345-1.917,0.948h-5.565   c-0.69,0-1.25,0.56-1.25,1.25v82.97h-2.452c-0.69,0-1.25,0.56-1.25,1.25s0.56,1.25,1.25,1.25h7.404c0.69,0,1.25-0.56,1.25-1.25   s-0.56-1.25-1.25-1.25h-2.452v-81.72h4.421c0.069,0.167,0.146,0.327,0.232,0.471c4.912,8.234,13.187,20.917,12.765,29.069   C42.771,53.657,42.2,56.934,40.777,80.94c-0.133,2.24,4.333,2.781,4.812-0.501c2.28-15.637,1.267-24.834,4.411-24.797   c3.157,0.037,2.112,9.034,4.411,24.797c0.479,3.282,4.945,2.742,4.812,0.501C57.8,56.934,57.23,53.657,56.516,39.889   c-0.422-8.151,7.853-20.835,12.765-29.069c0.086-0.144,0.162-0.305,0.232-0.471h4.421v81.72h-2.452c-0.69,0-1.25,0.56-1.25,1.25   s0.56,1.25,1.25,1.25h7.404c0.69,0,1.25-0.56,1.25-1.25S79.576,92.068,78.886,92.068z M59.912,16.848   C55.316,23.449,53.943,27.075,50,27.06c-3.961,0.015-5.383-3.706-9.912-10.212c-1.931-2.773-3.334-4.916-4.426-6.5h28.677   C63.247,11.932,61.843,14.076,59.912,16.848z"/></g><text x="0" y="115" fill="#000000" font-size="5px" font-weight="bold" font-family="'Helvetica Neue', Helvetica, Arial-Unicode, Arial, Sans-serif">Created by Lucas Helle</text><text x="0" y="120" fill="#000000" font-size="5px" font-weight="bold" font-family="'Helvetica Neue', Helvetica, Arial-Unicode, Arial, Sans-serif">from the Noun Project</text></svg>