<svg xmlns="http://www.w3.org/2000/svg" version="1.1" viewBox="-5.0 -10.0 110.0 135.0">
 <path d="m11 50.5c0-16.578 10.211-30.77 24.688-36.629 4.9805 14.941-5.0469 34.984-24.668 37.902-0.011719-0.42188-0.019531-0.84766-0.019531-1.2734zm0.23047 4.2734c21.672-3.0703 32.914-25.176 27.281-41.922 3.7812-1.2031 7.8086-1.8516 11.988-1.8516 4.4023 0 8.6367 0.71875 12.594 2.0508-5.4219 16.551 5.5312 38.215 26.688 41.625-1.0391 9.8828-5.7188 18.68-12.68 25.023-1.2109-0.97656-2.9688-2.2461-5.25-3.5117-4.6758-2.5977-11.547-5.1875-20.352-5.1875-9.7734 0-17.02 2.5742-21.84 5.1797-2.4062 1.3008-4.2031 2.6094-5.4102 3.5977-0.046875 0.039062-0.09375 0.078125-0.13672 0.11719-7.0547-6.3359-11.816-15.176-12.883-25.121zm78.754-3.1055c0.011719-0.39062 0.015625-0.77734 0.015625-1.168 0-16.352-9.9336-30.383-24.098-36.383-4.7344 14.742 5.0078 34.301 24.082 37.551zm-19.586 27.145c1.8281 1.0156 3.293 2.0312 4.3633 2.8594-6.6953 5.2188-15.117 8.3281-24.262 8.3281-9.043 0-17.379-3.0391-24.035-8.1523 1.0703-0.85156 2.6055-1.9375 4.625-3.0273 4.4297-2.3945 11.184-4.8203 20.41-4.8203 8.1953 0 14.574 2.4102 18.898 4.8125zm-19.898-70.812c-23.473 0-42.5 19.027-42.5 42.5s19.027 42.5 42.5 42.5 42.5-19.027 42.5-42.5-19.027-42.5-42.5-42.5zm-12.5 42.5c0-6.9023 5.5977-12.5 12.5-12.5s12.5 5.5977 12.5 12.5-5.5977 12.5-12.5 12.5-12.5-5.5977-12.5-12.5zm12.5-15.5c-8.5586 0-15.5 6.9414-15.5 15.5s6.9414 15.5 15.5 15.5 15.5-6.9414 15.5-15.5-6.9414-15.5-15.5-15.5zm-4 18.785c-0.39453-0.38672-1.0273-0.37891-1.4141 0.015625-0.38672 0.39453-0.37891 1.0273 0.015624 1.4141 3.1172 3.0469 8.2812 3.0469 11.398 0 0.39453-0.38672 0.40234-1.0195 0.015625-1.4141s-1.0195-0.40234-1.4141-0.015625c-2.3398 2.2852-6.2617 2.2852-8.6016 0zm0.30078-6.2852c0 1.6562-0.67188 3-1.5 3s-1.5-1.3438-1.5-3 0.67188-3 1.5-3 1.5 1.3438 1.5 3zm8.5 3c0.82812 0 1.5-1.3438 1.5-3s-0.67188-3-1.5-3-1.5 1.3438-1.5 3 0.67188 3 1.5 3z" fill-rule="evenodd"/>
<text x="0.0" y="117.5" font-size="5.0" font-weight="bold" font-family="Arbeit Regular, Helvetica, Arial-Unicode, Arial, Sans-serif" fill="#000000">Created by Ashok</text><text x="0.0" y="122.5" font-size="5.0" font-weight="bold" font-family="Arbeit Regular, Helvetica, Arial-Unicode, Arial, Sans-serif" fill="#000000">from Noun Project</text></svg>