<svg xmlns="http://www.w3.org/2000/svg" xmlns:xlink="http://www.w3.org/1999/xlink" version="1.0" x="0px" y="0px" viewBox="0 0 64 80" style="enable-background:new 0 0 64 64;" xml:space="preserve"><g><path d="M11.21,54.25H7.52c-0.55,0-1-0.45-1-1V12.6c0-1.57,1.28-2.85,2.85-2.85s2.85,1.28,2.85,2.85v40.65   C12.21,53.8,11.76,54.25,11.21,54.25z M8.52,52.25h1.69V12.6c0-0.47-0.38-0.85-0.85-0.85s-0.85,0.38-0.85,0.85V52.25z"/></g><g><path d="M15.04,32.34c-0.19,0-0.39-0.06-0.56-0.17l-3.83-2.62c-0.46-0.31-0.57-0.93-0.26-1.39c0.31-0.46,0.94-0.57,1.39-0.26   l3.83,2.62c0.46,0.31,0.57,0.93,0.26,1.39C15.67,32.19,15.36,32.34,15.04,32.34z"/></g><g><path d="M37.89,47.96c-0.19,0-0.39-0.06-0.56-0.17L20.71,36.43c-0.46-0.31-0.57-0.93-0.26-1.39c0.31-0.46,0.93-0.57,1.39-0.26   l16.62,11.36c0.46,0.31,0.57,0.93,0.26,1.39C38.52,47.81,38.21,47.96,37.89,47.96z"/></g><g><path d="M44.5,47.96c-0.19,0-0.39-0.06-0.56-0.17L24.97,34.84c-0.46-0.31-0.57-0.93-0.26-1.39c0.31-0.46,0.93-0.57,1.39-0.26   l18.97,12.95c0.46,0.31,0.57,0.93,0.26,1.39C45.13,47.81,44.82,47.96,44.5,47.96z"/></g><g><path d="M14.97,27.81c-0.19,0-0.39-0.06-0.56-0.17l-3.76-2.57c-0.46-0.31-0.57-0.93-0.26-1.39c0.31-0.46,0.93-0.57,1.39-0.26   l3.76,2.57c0.46,0.31,0.57,0.93,0.26,1.39C15.6,27.66,15.29,27.81,14.97,27.81z"/></g><g><path d="M7.52,27.17c-0.2,0-0.4-0.06-0.57-0.18l-4.19-2.91c-0.45-0.31-0.57-0.94-0.25-1.39l2.1-3.02C4.92,19.21,5.54,19.1,6,19.41   l2.09,1.44c0.45,0.31,0.57,0.94,0.25,1.39C8.03,22.7,7.4,22.82,6.95,22.5l-1.27-0.88l-0.96,1.38l3.36,2.34   c0.45,0.31,0.57,0.94,0.25,1.39C8.15,27.02,7.83,27.17,7.52,27.17z"/></g><g><path d="M47.21,54.25c-0.19,0-0.38-0.05-0.55-0.16c-0.46-0.3-0.59-0.92-0.29-1.38l14.7-22.51c0.11-0.43,0.02-0.88-0.24-1.24   c-0.29-0.4-0.73-0.62-1.22-0.62c-0.62,0-1.19,0.39-1.41,0.98c-0.03,0.08-0.07,0.16-0.12,0.23l-12.76,18   c-0.19,0.26-0.49,0.42-0.82,0.42H12.21v5.29c0,0.55-0.45,1-1,1s-1-0.45-1-1v-6.29c0-0.55,0.45-1,1-1h32.77l12.4-17.48   c0.54-1.29,1.82-2.15,3.23-2.15c1.14,0,2.17,0.53,2.84,1.45s0.84,2.07,0.48,3.15c-0.03,0.08-0.06,0.16-0.11,0.23L48.04,53.79   C47.85,54.09,47.53,54.25,47.21,54.25z"/></g><g><path d="M21.23,36.6c-4.21,0-7.63-3.42-7.63-7.63s3.42-7.63,7.63-7.63s7.63,3.42,7.63,7.63S25.43,36.6,21.23,36.6z M21.23,23.34   c-3.1,0-5.63,2.52-5.63,5.63s2.52,5.63,5.63,5.63s5.63-2.52,5.63-5.63S24.33,23.34,21.23,23.34z"/></g><g><path d="M27.42,27.6c-0.19,0-0.38-0.05-0.54-0.16c-0.46-0.3-0.59-0.92-0.29-1.38l4.6-7.08c0.06-0.09,0.03-0.22-0.07-0.28   l-0.67-0.43c-0.1-0.06-0.23-0.04-0.29,0.06l-4.06,5.97c-0.31,0.46-0.93,0.57-1.39,0.26c-0.46-0.31-0.58-0.93-0.26-1.39l4.05-5.96   c0.66-0.99,2.03-1.27,3.03-0.62l0.67,0.43c1.02,0.66,1.32,2.02,0.67,3.04l-4.61,7.09C28.06,27.44,27.74,27.6,27.42,27.6z"/></g><g><path d="M58.73,54.25H1.89c-0.55,0-1-0.45-1-1s0.45-1,1-1h56.84c0.55,0,1,0.45,1,1S59.28,54.25,58.73,54.25z"/></g><g><path d="M21.55,29.97h-0.95c-0.55,0-1-0.45-1-1s0.45-1,1-1h0.95c0.55,0,1,0.45,1,1S22.1,29.97,21.55,29.97z"/></g><text x="0" y="79" fill="#000000" font-size="5px" font-weight="bold" font-family="'Helvetica Neue', Helvetica, Arial-Unicode, Arial, Sans-serif">Created by Upnow Graphic</text><text x="0" y="84" fill="#000000" font-size="5px" font-weight="bold" font-family="'Helvetica Neue', Helvetica, Arial-Unicode, Arial, Sans-serif">from the Noun Project</text></svg>