<svg xmlns="http://www.w3.org/2000/svg" version="1.1" viewBox="-5.0 -10.0 110.0 135.0">
 <path d="m21.586 36.367c0.44531 0.21484 0.58203 0.56641 0.57812 1.0586-0.015624 3.3633-0.007812 6.7266-0.007812 10.086v0.54297c0.36719 0.10156 54.852 0.14062 55.66 0.042968 0.007813-0.17188 0.019532-0.35156 0.019532-0.53125v-9.7617c0-0.125 0.007812-0.25 0-0.375-0.039063-0.50781 0.13672-0.88281 0.63672-1.0625h0.1875c0.19141 0.035156 0.38672 0.097656 0.57812 0.10156 2.3789 0.007812 4.7617 0.003906 7.1406 0.007812 0.23047 0 0.46484 0.023438 0.69141 0.070313 0.56641 0.11328 0.72656 0.32031 0.74219 0.89062 0.003906 0.22656 0.011719 0.45312 0.019531 0.70312h0.57031c0.90234 0 1.8047 0.003906 2.707 0 0.38672 0 0.72266 0.10938 0.88672 0.47656 0.078125 0.17578 0.085937 0.39453 0.089844 0.59375 0.007812 1.6484 0.003906 3.3008 0.003906 4.9492v0.54688h0.55859c0.74609 0.003907 1.4922-0.003906 2.2383 0.019531 0.47266 0.015626 0.70312 0.25781 0.74609 0.72656 0.011719 0.10938 0.003907 0.21875 0.003907 0.32812v2.2422c0 0.15234 0.015625 0.30078 0.023437 0.48047 0.17969 0.007813 0.33203 0.019532 0.48438 0.019532 0.69922 0.003906 1.4023-0.007813 2.1016 0.003906 0.47266 0.007812 0.64844 0.16016 0.79297 0.625 0.011719 0.039062 0.050782 0.074218 0.074219 0.10938v2.8047c-0.16406 0.54688-0.55469 0.74219-1.0977 0.72656-0.62109-0.015625-1.2461-0.003907-1.8672-0.003907-0.15234 0-0.30469 0.011719-0.51172 0.023438 0 0.34375-0.003907 0.66797 0 0.98828 0.003906 0.51172 0.007812 1.0273 0.023437 1.5391 0.015625 0.5-0.22656 0.78906-0.74609 0.8125-0.44922 0.019531-0.90234 0.007812-1.3555 0.007812h-1.4531c-0.007813 0.1875-0.023438 0.35156-0.023438 0.51562v3.7383c0 0.10938 0.003907 0.21875 0 0.32813-0.027343 0.5625-0.3125 0.86328-0.87891 0.875-0.94922 0.015624-1.8984 0.003906-2.8477 0.003906h-0.54688c0 0.38281 0.003906 0.70703 0 1.0273-0.007813 0.59766-0.17578 0.80078-0.77344 0.91016-0.21094 0.039062-0.42969 0.066406-0.64844 0.066406-2.4453 0.003906-4.8867 0.003906-7.332 0.003906-0.86719 0-1.2227-0.35156-1.2227-1.2148-0.003906-3.0508 0-6.1016 0-9.1562v-0.56641h-55.684v0.58594c0 3.0508 0 6.1016-0.003907 9.1562 0 0.21094-0.015625 0.44531-0.10156 0.63281-0.17969 0.37891-0.5 0.57031-0.9375 0.56641-0.91797-0.011718-1.8359-0.003906-2.7539-0.003906-1.5703 0-3.1445 0.003906-4.7148-0.003906-0.26172 0-0.52734-0.035156-0.78516-0.085938-0.4375-0.085937-0.61328-0.28906-0.65234-0.73047-0.015625-0.19922-0.007813-0.40625-0.011719-0.60547v-0.55859c-0.1875-0.011719-0.33594-0.027343-0.48438-0.027343-0.85547-0.003907-1.7109 0-2.5664 0-0.125 0-0.25 0.003906-0.375-0.003907-0.53906-0.035156-0.82812-0.32031-0.83203-0.85938-0.007813-1.168-0.003907-2.3359-0.003907-3.5039v-1.0547c-0.17188-0.015624-0.30469-0.035156-0.4375-0.035156-0.76172-0.003906-1.5234-0.003906-2.2891-0.003906-0.27344 0-0.53125-0.046875-0.71484-0.27344-0.14844-0.17969-0.14844-0.38672-0.14453-0.61328 0.019531-0.80469 0.007812-1.6094 0.007812-2.4492-0.14844-0.011718-0.28516-0.03125-0.41797-0.03125-0.66797-0.003906-1.3398 0.003907-2.0078-0.003906-0.71875-0.007812-1.0312-0.3125-1.043-1.0234-0.011718-0.71484-0.003906-1.4336 0-2.1484 0-0.125 0.015625-0.25 0.039063-0.37109 0.089843-0.48438 0.33203-0.70703 0.82812-0.71875 0.68359-0.015626 1.3711-0.003907 2.0547-0.003907h0.57422v-0.48828c0-0.80859-0.003906-1.6211 0-2.4297 0.003906-0.64844 0.21875-0.87109 0.86719-0.88672 0.69922-0.019532 1.4023-0.011719 2.1016-0.015625h0.5625c0.007812-0.19922 0.019531-0.36328 0.019531-0.52734 0-1.6953-0.003906-3.3945 0.003907-5.0898 0-0.63281 0.30859-0.92578 0.94922-0.94531 0.10938-0.003907 0.21875 0 0.32812 0h2.4766 0.51172c0-0.29688-0.011718-0.54297 0.003907-0.78906 0.027343-0.5 0.19141-0.69531 0.68359-0.79688 0.24219-0.050781 0.49219-0.078125 0.73828-0.078125 2.3828-0.003906 4.7617 0 7.1445-0.007812 0.21094 0 0.42188-0.066406 0.63281-0.10156 0.066406 0.003907 0.125 0.003907 0.1875 0.003907zm-7.9766 1.5234v24.289c0.49609 0.097656 6.7969 0.082031 7.1328-0.011719 0.085937-0.72656 0.050781-23.918-0.042969-24.277h-7.0898zm65.672 0c-0.023438 0.074219-0.046875 0.11719-0.046875 0.16016-0.003906 7.9414-0.003906 15.879-0.003906 23.82 0 0.09375 0.011719 0.1875 0.023437 0.27734 0 0.011718 0.019532 0.023437 0.027344 0.035156 0.011719 0.011718 0.023438 0.023437 0.03125 0.03125 0.97656 0.082031 6.7305 0.042968 7.0742-0.046875v-24.281c-2.3789 0.003906-4.7266 0.003906-7.1055 0.003906zm-57.098 13.348h55.652c-0.003907-0.58594 0.023437-1.1367-0.015626-1.668h-55.641c0.003906 0.57031 0.003906 1.1094 0.003906 1.668zm68.496 8.957v-20.637h-2.8281v20.637h2.8281zm-78.52 0.003907c0.097656-1.0195 0.054688-20.285-0.042968-20.637h-2.793v20.637h2.8359zm79.988-14.094c-0.10547 0.58203-0.078126 8.3086 0.023437 8.6367h2.0234c0.10156-0.57031 0.074219-8.2969-0.027343-8.6367h-2.0195zm-86.324 0c-0.10547 0.64844-0.074219 8.3164 0.03125 8.6328h2.0234c0.10547-0.61328 0.074219-8.3008-0.03125-8.6328h-2.0234zm-3.5352 5.293c0.72266 0 1.3945 0.015624 2.0898-0.007813-0.011718-0.52734 0.027344-0.98438-0.027344-1.4688-0.71484 0.003906-1.3867-0.019531-2.0625 0.011719v1.4648zm95.41-1.4531h-2.0273c-0.042969 0.49219-0.046875 0.95703-0.003906 1.4258h2.0352c-0.003906-0.48828-0.003906-0.94531-0.003906-1.4258z"/>
<text x="0.0" y="117.5" font-size="5.0" font-weight="bold" font-family="Arbeit Regular, Helvetica, Arial-Unicode, Arial, Sans-serif" fill="#000000">Created by carna diri</text><text x="0.0" y="122.5" font-size="5.0" font-weight="bold" font-family="Arbeit Regular, Helvetica, Arial-Unicode, Arial, Sans-serif" fill="#000000">from Noun Project</text></svg>