<svg xmlns="http://www.w3.org/2000/svg" xmlns:xlink="http://www.w3.org/1999/xlink" xmlns:serif="http://www.serif.com/" viewBox="0 0 417 521.25" version="1.1" xml:space="preserve" style="" x="0px" y="0px" fill-rule="evenodd" clip-rule="evenodd" stroke-linejoin="round" stroke-miterlimit="2"><rect serif:id="Page 9" x="0" y="0" width="416.667" height="416.667" style="" fill="none"/><path d="M203.391,29.27l43.883,-0l-0,301.172l-51.814,-0l0,-27.187c10.323,-1.955 18.139,-11.03 18.139,-21.916c-0,-12.311 -9.995,-22.305 -22.305,-22.305c-12.311,-0 -22.306,9.994 -22.306,22.305c0,10.886 7.816,19.961 18.139,21.916l0,31.353c0,2.302 1.866,4.167 4.167,4.167l55.98,0l-0,20.144l-121.132,0l-5.108,-20.144l37.052,0c2.301,0 4.166,-1.865 4.166,-4.167l0,-16.327c0,-1.105 -0.439,-2.164 -1.22,-2.946l-7.996,-7.996c-0.782,-0.782 -1.842,-1.221 -2.947,-1.221l-101.158,0c-1.105,0 -2.164,0.439 -2.946,1.221l-7.996,7.996c-0.782,0.782 -1.221,1.841 -1.221,2.946l0,16.327c0,2.302 1.866,4.167 4.167,4.167l52.646,0l5.107,20.144l-32.686,0c-2.301,0 -4.167,1.866 -4.167,4.167l0,28.478c0,2.301 1.866,4.166 4.167,4.166l309.763,0l0.022,0c1.737,-0.022 3.219,-1.11 3.822,-2.639l0.224,-0.79l0.065,-0.737l0,-340.11c0,-16.854 -13.663,-30.518 -30.518,-30.518l-180.273,0c-2.301,0 -4.167,1.866 -4.167,4.167l0,39.956c0,2.301 1.866,4.167 4.167,4.167l10.892,-0l-0,35.441l-28.592,0c-1.066,0 -2.091,0.409 -2.865,1.142l-15.107,14.312c-1.67,1.582 -1.741,4.221 -0.16,5.891c1.582,1.669 4.221,1.74 5.891,0.159l13.902,-13.17c-0,-0 62.195,-0 62.195,-0c0,-0 13.902,13.17 13.902,13.17c1.67,1.581 4.309,1.51 5.891,-0.159c1.581,-1.67 1.51,-4.309 -0.16,-5.891l-15.107,-14.312c-0.774,-0.733 -1.799,-1.142 -2.865,-1.142l-28.592,0l0,-35.441l10.892,-0c2.301,-0 4.167,-1.866 4.167,-4.167l-0,-35.789Zm42.612,337.983l-175.834,-0c-0,-0 -0,20.144 -0,20.144c-0,0 175.834,0 175.834,0l-0,-20.144Zm19.582,-74.465c0,-2.301 1.866,-4.167 4.167,-4.167l22.27,0l0,-194.435l-16.818,0c-2.301,0 -4.167,-1.865 -4.167,-4.166l0,-20.794l-15.43,-0l-0,318.171l115.958,0l0,-318.171l-14.412,-0l0,20.794c0,2.301 -1.865,4.166 -4.166,4.166l-16.819,0l0,194.435l22.27,0c2.302,0 4.167,1.866 4.167,4.167l0,80.229c0,2.301 -1.865,4.167 -4.167,4.167l-22.384,-0c-0.438,1.831 -2.088,3.194 -4.053,3.194c-1.965,0 -3.614,-1.363 -4.052,-3.194l-27.708,-0c-0.438,1.831 -2.087,3.194 -4.052,3.194c-1.965,0 -3.614,-1.363 -4.052,-3.194l-22.385,-0c-2.301,-0 -4.167,-1.866 -4.167,-4.167l0,-80.229Zm88.687,45.987l-0,30.075c-0,0 -80.353,0 -80.353,0c-0,0 -0,-30.075 -0,-30.075l80.353,0Zm-241.835,0c0,0 5.108,20.144 5.108,20.144l-10.26,0l-5.107,-20.144l10.259,0Zm-67.335,-8.333l108.817,-0l0,-10.435l-5.556,-5.555c0,-0 -97.706,-0 -97.706,-0.001c0,0 -5.555,5.556 -5.555,5.556c-0,0 -0,10.435 -0,10.435Zm309.17,-33.487l-0,33.487c-0,-0 -80.353,-0 -80.353,-0c-0,-0 -0,-33.487 -0,-33.487l80.353,-0Zm-162.978,-29.588c7.711,-0 13.972,6.261 13.972,13.972c-0,7.711 -6.261,13.972 -13.972,13.972c-7.712,-0 -13.972,-6.261 -13.972,-13.972c-0,-7.711 6.26,-13.972 13.972,-13.972Zm109.062,-173.181l-0,194.435l27.479,0l-0,-194.435l-27.479,0Zm48.464,-8.333l-69.449,0l-0,-16.627l69.449,-0l-0,16.627Zm-153.762,-56.583l-0,31.622c-0,0.001 -21.785,0.001 -21.785,0.001c0,-0 0,-31.623 0,-31.623l21.785,-0Zm60.549,-0l-0,31.623l115.958,-0l0,-9.439c-0,-12.252 -9.932,-22.184 -22.185,-22.184l-93.773,-0Z"/><text x="0" y="432" fill="#000000" font-size="5px" font-weight="bold" font-family="'Helvetica Neue', Helvetica, Arial-Unicode, Arial, Sans-serif">Created by Agan24</text><text x="0" y="437" fill="#000000" font-size="5px" font-weight="bold" font-family="'Helvetica Neue', Helvetica, Arial-Unicode, Arial, Sans-serif">from the Noun Project</text></svg>